<svg id="194062081" viewBox="0 0 370 67.06300354003906" height="67.06300354003906" width="370" style="width: 370px; height: 67.063px; position: absolute; top: 50%; left: 50%; transform: translate(-50%, -50%) scale(0.641216); z-index: 0; cursor: pointer; overflow: visible;"><defs id="SvgjsDefs1026"></defs><g id="SvgjsG1027" featurekey="PG4fjM-0" transform="matrix(1,0,0,1,0,0)" fill="#48466d"><g xmlns="http://www.w3.org/2000/svg"><g><path d="M79.861,56.645c0,0-4.941-0.617-14.014,2.113c-10.295,3.096-15.852,8.305-15.852,8.305s-7.28-5.229-15.737-8.271    c-12.731-4.577-14.122-2.147-14.122-2.147c0-4.928,0.679-11.562,2.233-18.439l27.626,12.191l27.956-12.53    C79.35,44.865,79.861,51.637,79.861,56.645z"></path><g><polygon points="100,22.225 49.997,44.449 0,22.225 49.997,0    "></polygon></g></g></g></g><g id="SvgjsG1028" featurekey="jxYttZ-0" transform="matrix(3.9469531805205915,0,0,3.9469531805205915,116.05304870153334,-16.024320653810484)" fill="#48466d"><path d="M11.9 14.5 c0.06 0.14 0.54 1.5 -0.08 2.92 c-0.72 1.7 -2.74 2.76 -5.26 2.78 c-2.18 0 -4.16 -0.96 -5.56 -2.48 l1.48 -1.48 c0.7 1.24 2.48 2.12 4.08 2.12 c1.74 -0.02 2.76 -0.66 3.18 -1.66 c0.32 -0.74 0.06 -1.54 0.04 -1.56 c-0.42 -1.16 -1.58 -1.42 -3.22 -1.92 c-1.86 -0.56 -4 -1.02 -4.7 -2.98 c-0.38 -1.02 -0.28 -2.2 0.24 -3.16 c1.16 -2.2 4.12 -2.26 4.46 -2.26 c2.2 0 4.16 0.96 5.56 2.5 l-1.46 1.46 c-0.82 -1.2 -2.42 -2.12 -4.1 -2.12 c-0.02 0 -1.78 0 -2.46 1.28 c-0.26 0.5 -0.32 1.16 -0.14 1.68 c0.4 1.1 1.54 1.36 3.14 1.84 c1.9 0.58 4.04 1.02 4.8 3.04 z M14.600000000000001 15.82 l0 -5.7 l2.06 0 l0 5.5 c0 2 0.62 2.88 2.32 2.88 c1.92 0 2.7 -1.34 2.7 -3.08 l0 -5.3 l2.06 0 l0 9.88 l-2.06 0 l0 -1.6 c-0.28 0.88 -1.52 1.68 -2.7 1.76 c-2.68 0.2 -4.38 -1.1 -4.38 -4.34 z M26.140000000000004 15.08 c0 -2.94 2.1 -5.14 4.94 -5.14 c0.98 0 2.18 0.42 2.84 0.96 l0 -5.9 l2.08 0 l0 15 l-2.08 0 l0 -0.74 c-0.78 0.58 -1.86 0.94 -2.84 0.94 c-2.84 0 -4.94 -2.18 -4.94 -5.12 z M28.220000000000002 15.08 c0 2 1.38 3.44 3.06 3.44 c1.12 0 2.12 -0.52 2.64 -1.58 c0.28 -0.54 0.44 -1.18 0.44 -1.86 s-0.16 -1.32 -0.44 -1.88 c-0.52 -1.06 -1.52 -1.56 -2.64 -1.56 c-1.68 0 -3.06 1.42 -3.06 3.44 z M41.620000000000005 18.16 l8.14 0 l0 1.84 l-10.36 0 l0 -15 l9.98 0 l0 1.84 l-7.76 0 l0 4.44 l6.34 0 l0 1.86 l-6.34 0 l0 5.02 z M64.34 5 l-5.22 7.52 l5.2 7.48 l-2.58 0 l-3.88 -5.6 l-3.9 5.6 l-2.6 0 l5.22 -7.48 l-5.22 -7.52 l2.6 0 l3.88 5.62 l3.92 -5.62 l2.58 0 z"></path></g></svg>